<svg version="1.0" xmlns="http://www.w3.org/2000/svg" width="317.65" height="269.46" viewBox="7.39 21.59 184.97 156.91">
  <g id="_1595778772016">
    <path fill="#001314" d="M180.4,79.5C168.6,43.6,136,17.2,91.4,22.2C22,30,10.1,97.9,43.1,123.3c24.2,15,65.7-4.8,57.5-26.9c-15.5,25.2-34.3-8.2-36.2-7c15.1,21-22.9,34.1-22,5.5c0.4-11.4,14.2-26.1,40.7-26.3c27.1-0.2,41.5,19.1,58.7,21.7l0,0C154.6,92.1,166.1,88.9,180.4,79.5z M140.3,67.6c-0.8-3.6,1.8-7.1,5.7-7.8c3.9-0.7,7.7,1.6,8.5,5.2c0.8,3.6-1.8,7.1-5.7,7.7l0,0C144.9,73.5,141.1,71.2,140.3,67.6z"/>
    <path fill="#878787" d="M89,134.4c14.8-6.1,22-20.4,20.6-32.7c-3.5-13.3-4.3-17.3-21.5-20c25.3-9.8,40.8,11.5,49.4,19.7c16,15.2,39.5,5.8,44.4-14.1c31.3,17.4-13.4,77.5-58.2,41.3c2.3,37.4-41.7,39.5-62.1,27c-30.8,12.7-79.4-27-38.6-77.2C9.6,107.2,34.2,157.1,89,134.4z"/>
    <path fill="#001314" d="M126.9,135.9c2.3,37.4-41.7,39.5-62.1,27c-1.4,1.6-3.1,3.1-4.9,4.4c12.2,7.1,26.3,11.2,41.4,11.2c26.8,0,50.7-12.8,65.7-32.7C155.3,149.1,141.1,147.3,126.9,135.9z"/>
  </g>
</svg>